<?xml version="1.0" encoding="UTF-8" standalone="no"?>
<!DOCTYPE svg PUBLIC "-//W3C//DTD SVG 1.1//EN"
 "http://www.w3.org/Graphics/SVG/1.1/DTD/svg11.dtd">
<!-- Generated by graphviz version 9.0.0 (0)
 -->
<!-- Title: AST Pages: 1 -->
<svg width="735pt" height="404pt"
 viewBox="0.00 0.00 734.50 404.00" xmlns="http://www.w3.org/2000/svg" xmlns:xlink="http://www.w3.org/1999/xlink">
<g id="graph0" class="graph" transform="scale(1 1) rotate(0) translate(4 400)">
<title>AST</title>
<polygon fill="white" stroke="none" points="-4,4 -4,-400 730.5,-400 730.5,4 -4,4"/>
<!-- 33 -->
<g id="node1" class="node">
<title>33</title>
<text text-anchor="middle" x="33.5" y="-12.95" font-family="Times,serif" font-size="14.00">CREATE</text>
</g>
<!-- 33table -->
<g id="node2" class="node">
<title>33table</title>
<text text-anchor="middle" x="114.5" y="-12.95" font-family="Times,serif" font-size="14.00">TABLE</text>
</g>
<!-- 33i -->
<g id="node3" class="node">
<title>33i</title>
<text text-anchor="middle" x="193.5" y="-12.95" font-family="Times,serif" font-size="14.00">personas</text>
</g>
<!-- 33cols -->
<g id="node4" class="node">
<title>33cols</title>
<text text-anchor="middle" x="275.5" y="-12.95" font-family="Times,serif" font-size="14.00">Columns</text>
</g>
<!-- stmt33 -->
<g id="node5" class="node">
<title>stmt33</title>
<text text-anchor="middle" x="193.5" y="-84.95" font-family="Times,serif" font-size="14.00">Statement</text>
</g>
<!-- stmt33&#45;&#45;33 -->
<g id="edge1" class="edge">
<title>stmt33&#45;&#45;33</title>
<path fill="none" stroke="black" d="M158.39,-73.64C131.16,-61.73 93.67,-45.33 66.89,-33.61"/>
</g>
<!-- stmt33&#45;&#45;33table -->
<g id="edge2" class="edge">
<title>stmt33&#45;&#45;33table</title>
<path fill="none" stroke="black" d="M174.38,-72.05C161.96,-61.05 145.83,-46.76 133.45,-35.79"/>
</g>
<!-- stmt33&#45;&#45;33i -->
<g id="edge3" class="edge">
<title>stmt33&#45;&#45;33i</title>
<path fill="none" stroke="black" d="M193.5,-72.05C193.5,-61.05 193.5,-46.76 193.5,-35.79"/>
</g>
<!-- stmt33&#45;&#45;33cols -->
<g id="edge4" class="edge">
<title>stmt33&#45;&#45;33cols</title>
<path fill="none" stroke="black" d="M213.35,-72.05C226.24,-61.05 242.98,-46.76 255.83,-35.79"/>
</g>
<!-- 33; -->
<g id="node6" class="node">
<title>33;</title>
<text text-anchor="middle" x="353.5" y="-12.95" font-family="Times,serif" font-size="14.00">;</text>
</g>
<!-- stmt33&#45;&#45;33; -->
<g id="edge5" class="edge">
<title>stmt33&#45;&#45;33;</title>
<path fill="none" stroke="black" d="M228.66,-74.38C253.57,-63.93 287.71,-49.39 317.5,-36 320.53,-34.64 323.68,-33.19 326.81,-31.74"/>
</g>
<!-- code0 -->
<g id="node7" class="node">
<title>code0</title>
<text text-anchor="middle" x="233.5" y="-156.95" font-family="Times,serif" font-size="14.00">Statements</text>
</g>
<!-- code0&#45;&#45;stmt33 -->
<g id="edge6" class="edge">
<title>code0&#45;&#45;stmt33</title>
<path fill="none" stroke="black" d="M223.82,-144.05C217.53,-133.05 209.36,-118.76 203.09,-107.79"/>
</g>
<!-- stmt47 -->
<g id="node8" class="node">
<title>stmt47</title>
<text text-anchor="middle" x="273.5" y="-84.95" font-family="Times,serif" font-size="14.00">stmt47</text>
</g>
<!-- code0&#45;&#45;stmt47 -->
<g id="edge7" class="edge">
<title>code0&#45;&#45;stmt47</title>
<path fill="none" stroke="black" d="M243.18,-144.05C249.47,-133.05 257.64,-118.76 263.91,-107.79"/>
</g>
<!-- undefined -->
<g id="node9" class="node">
<title>undefined</title>
<text text-anchor="middle" x="526.5" y="-372.95" font-family="Times,serif" font-size="14.00">undefined</text>
</g>
<!-- code1 -->
<g id="node10" class="node">
<title>code1</title>
<text text-anchor="middle" x="316.5" y="-228.95" font-family="Times,serif" font-size="14.00">Statements</text>
</g>
<!-- code1&#45;&#45;code0 -->
<g id="edge8" class="edge">
<title>code1&#45;&#45;code0</title>
<path fill="none" stroke="black" d="M296.41,-216.05C283.36,-205.05 266.42,-190.76 253.41,-179.79"/>
</g>
<!-- stmt72 -->
<g id="node11" class="node">
<title>stmt72</title>
<text text-anchor="middle" x="316.5" y="-156.95" font-family="Times,serif" font-size="14.00">stmt72</text>
</g>
<!-- code1&#45;&#45;stmt72 -->
<g id="edge9" class="edge">
<title>code1&#45;&#45;stmt72</title>
<path fill="none" stroke="black" d="M316.5,-216.05C316.5,-205.05 316.5,-190.76 316.5,-179.79"/>
</g>
<!-- code2 -->
<g id="node12" class="node">
<title>code2</title>
<text text-anchor="middle" x="394.5" y="-300.95" font-family="Times,serif" font-size="14.00">Statements</text>
</g>
<!-- code2&#45;&#45;code1 -->
<g id="edge10" class="edge">
<title>code2&#45;&#45;code1</title>
<path fill="none" stroke="black" d="M375.62,-288.05C363.35,-277.05 347.44,-262.76 335.21,-251.79"/>
</g>
<!-- stmt73 -->
<g id="node13" class="node">
<title>stmt73</title>
<text text-anchor="middle" x="508.5" y="-228.95" font-family="Times,serif" font-size="14.00">Statement</text>
</g>
<!-- code2&#45;&#45;stmt73 -->
<g id="edge11" class="edge">
<title>code2&#45;&#45;stmt73</title>
<path fill="none" stroke="black" d="M422.1,-288.05C440.02,-277.05 463.29,-262.76 481.16,-251.79"/>
</g>
<!-- 73 -->
<g id="node14" class="node">
<title>73</title>
<text text-anchor="middle" x="394.5" y="-156.95" font-family="Times,serif" font-size="14.00">SELECT</text>
</g>
<!-- stmt73&#45;&#45;73 -->
<g id="edge12" class="edge">
<title>stmt73&#45;&#45;73</title>
<path fill="none" stroke="black" d="M480.9,-216.05C462.98,-205.05 439.71,-190.76 421.84,-179.79"/>
</g>
<!-- 73selection -->
<g id="node15" class="node">
<title>73selection</title>
<text text-anchor="middle" x="472.5" y="-156.95" font-family="Times,serif" font-size="14.00">*</text>
</g>
<!-- stmt73&#45;&#45;73selection -->
<g id="edge13" class="edge">
<title>stmt73&#45;&#45;73selection</title>
<path fill="none" stroke="black" d="M499.79,-216.05C494.13,-205.05 486.78,-190.76 481.13,-179.79"/>
</g>
<!-- 73from -->
<g id="node16" class="node">
<title>73from</title>
<text text-anchor="middle" x="545.5" y="-156.95" font-family="Times,serif" font-size="14.00">FROM</text>
</g>
<!-- stmt73&#45;&#45;73from -->
<g id="edge14" class="edge">
<title>stmt73&#45;&#45;73from</title>
<path fill="none" stroke="black" d="M517.46,-216.05C523.27,-205.05 530.82,-190.76 536.63,-179.79"/>
</g>
<!-- 73i -->
<g id="node17" class="node">
<title>73i</title>
<text text-anchor="middle" x="622.5" y="-156.95" font-family="Times,serif" font-size="14.00">personas</text>
</g>
<!-- stmt73&#45;&#45;73i -->
<g id="edge15" class="edge">
<title>stmt73&#45;&#45;73i</title>
<path fill="none" stroke="black" d="M536.1,-216.05C554.02,-205.05 577.29,-190.76 595.16,-179.79"/>
</g>
<!-- 73; -->
<g id="node18" class="node">
<title>73;</title>
<text text-anchor="middle" x="699.5" y="-156.95" font-family="Times,serif" font-size="14.00">;</text>
</g>
<!-- stmt73&#45;&#45;73; -->
<g id="edge16" class="edge">
<title>stmt73&#45;&#45;73;</title>
<path fill="none" stroke="black" d="M543.69,-222.21C575.38,-212.19 623.05,-196.41 663.5,-180 666.45,-178.8 669.5,-177.49 672.52,-176.14"/>
</g>
<!-- code3 -->
<g id="node19" class="node">
<title>code3</title>
<text text-anchor="middle" x="435.5" y="-372.95" font-family="Times,serif" font-size="14.00">Statements</text>
</g>
<!-- code3&#45;&#45;code2 -->
<g id="edge17" class="edge">
<title>code3&#45;&#45;code2</title>
<path fill="none" stroke="black" d="M425.58,-360.05C419.13,-349.05 410.76,-334.76 404.33,-323.79"/>
</g>
<!-- EOF -->
<g id="node20" class="node">
<title>EOF</title>
<text text-anchor="middle" x="477.5" y="-300.95" font-family="Times,serif" font-size="14.00">EOF</text>
</g>
<!-- code3&#45;&#45;EOF -->
<g id="edge18" class="edge">
<title>code3&#45;&#45;EOF</title>
<path fill="none" stroke="black" d="M445.67,-360.05C452.27,-349.05 460.84,-334.76 467.43,-323.79"/>
</g>
</g>
</svg>
