<?xml version="1.0" encoding="UTF-8" standalone="no"?>
<!DOCTYPE svg PUBLIC "-//W3C//DTD SVG 1.1//EN"
 "http://www.w3.org/Graphics/SVG/1.1/DTD/svg11.dtd">
<!-- Generated by graphviz version 9.0.0 (0)
 -->
<!-- Title: AST Pages: 1 -->
<svg width="874pt" height="548pt"
 viewBox="0.00 0.00 873.50 548.00" xmlns="http://www.w3.org/2000/svg" xmlns:xlink="http://www.w3.org/1999/xlink">
<g id="graph0" class="graph" transform="scale(1 1) rotate(0) translate(4 544)">
<title>AST</title>
<polygon fill="white" stroke="none" points="-4,4 -4,-544 869.5,-544 869.5,4 -4,4"/>
<!-- 0 -->
<g id="node1" class="node">
<title>0</title>
<text text-anchor="middle" x="49.5" y="-156.95" font-family="Times,serif" font-size="14.00">INT</text>
</g>
<!-- 0v -->
<g id="node2" class="node">
<title>0v</title>
<text text-anchor="middle" x="49.5" y="-84.95" font-family="Times,serif" font-size="14.00">3</text>
</g>
<!-- 0&#45;&#45;0v -->
<g id="edge1" class="edge">
<title>0&#45;&#45;0v</title>
<path fill="none" stroke="black" d="M49.5,-144.05C49.5,-133.05 49.5,-118.76 49.5,-107.79"/>
</g>
<!-- 1 -->
<g id="node3" class="node">
<title>1</title>
<text text-anchor="middle" x="141.5" y="-84.95" font-family="Times,serif" font-size="14.00">INT</text>
</g>
<!-- 1v -->
<g id="node4" class="node">
<title>1v</title>
<text text-anchor="middle" x="141.5" y="-12.95" font-family="Times,serif" font-size="14.00">7</text>
</g>
<!-- 1&#45;&#45;1v -->
<g id="edge2" class="edge">
<title>1&#45;&#45;1v</title>
<path fill="none" stroke="black" d="M141.5,-72.05C141.5,-61.05 141.5,-46.76 141.5,-35.79"/>
</g>
<!-- 2 -->
<g id="node5" class="node">
<title>2</title>
<text text-anchor="middle" x="285.5" y="-84.95" font-family="Times,serif" font-size="14.00">INT</text>
</g>
<!-- 2v -->
<g id="node6" class="node">
<title>2v</title>
<text text-anchor="middle" x="285.5" y="-12.95" font-family="Times,serif" font-size="14.00">9</text>
</g>
<!-- 2&#45;&#45;2v -->
<g id="edge3" class="edge">
<title>2&#45;&#45;2v</title>
<path fill="none" stroke="black" d="M285.5,-72.05C285.5,-61.05 285.5,-46.76 285.5,-35.79"/>
</g>
<!-- 3 -->
<g id="node7" class="node">
<title>3</title>
<text text-anchor="middle" x="222.5" y="-156.95" font-family="Times,serif" font-size="14.00">BinaryExpression</text>
</g>
<!-- 3&#45;&#45;1 -->
<g id="edge4" class="edge">
<title>3&#45;&#45;1</title>
<path fill="none" stroke="black" d="M202.89,-144.05C190.16,-133.05 173.63,-118.76 160.93,-107.79"/>
</g>
<!-- 3&#45;&#45;2 -->
<g id="edge6" class="edge">
<title>3&#45;&#45;2</title>
<path fill="none" stroke="black" d="M237.75,-144.05C247.66,-133.05 260.51,-118.76 270.39,-107.79"/>
</g>
<!-- 3op -->
<g id="node8" class="node">
<title>3op</title>
<text text-anchor="middle" x="213.5" y="-84.95" font-family="Times,serif" font-size="14.00">*</text>
</g>
<!-- 3&#45;&#45;3op -->
<g id="edge5" class="edge">
<title>3&#45;&#45;3op</title>
<path fill="none" stroke="black" d="M220.32,-144.05C218.91,-133.05 217.07,-118.76 215.66,-107.79"/>
</g>
<!-- 4 -->
<g id="node9" class="node">
<title>4</title>
<text text-anchor="middle" x="129.5" y="-228.95" font-family="Times,serif" font-size="14.00">BinaryExpression</text>
</g>
<!-- 4&#45;&#45;0 -->
<g id="edge7" class="edge">
<title>4&#45;&#45;0</title>
<path fill="none" stroke="black" d="M110.13,-216.05C97.56,-205.05 81.23,-190.76 68.69,-179.79"/>
</g>
<!-- 4&#45;&#45;3 -->
<g id="edge9" class="edge">
<title>4&#45;&#45;3</title>
<path fill="none" stroke="black" d="M152.01,-216.05C166.63,-205.05 185.61,-190.76 200.19,-179.79"/>
</g>
<!-- 4op -->
<g id="node10" class="node">
<title>4op</title>
<text text-anchor="middle" x="121.5" y="-156.95" font-family="Times,serif" font-size="14.00">+</text>
</g>
<!-- 4&#45;&#45;4op -->
<g id="edge8" class="edge">
<title>4&#45;&#45;4op</title>
<path fill="none" stroke="black" d="M127.56,-216.05C126.31,-205.05 124.67,-190.76 123.42,-179.79"/>
</g>
<!-- 5 -->
<g id="node11" class="node">
<title>5</title>
<text text-anchor="middle" x="27.5" y="-228.95" font-family="Times,serif" font-size="14.00">PRINT</text>
</g>
<!-- stmt5 -->
<g id="node12" class="node">
<title>stmt5</title>
<text text-anchor="middle" x="180.5" y="-300.95" font-family="Times,serif" font-size="14.00">Statement</text>
</g>
<!-- stmt5&#45;&#45;4 -->
<g id="edge11" class="edge">
<title>stmt5&#45;&#45;4</title>
<path fill="none" stroke="black" d="M168.15,-288.05C160.14,-277.05 149.73,-262.76 141.73,-251.79"/>
</g>
<!-- stmt5&#45;&#45;5 -->
<g id="edge10" class="edge">
<title>stmt5&#45;&#45;5</title>
<path fill="none" stroke="black" d="M145.21,-288.9C122.22,-278.4 91.57,-264.4 64.5,-252 61.42,-250.59 58.19,-249.11 54.98,-247.63"/>
</g>
<!-- 5; -->
<g id="node13" class="node">
<title>5;</title>
<text text-anchor="middle" x="230.5" y="-228.95" font-family="Times,serif" font-size="14.00">;</text>
</g>
<!-- stmt5&#45;&#45;5; -->
<g id="edge12" class="edge">
<title>stmt5&#45;&#45;5;</title>
<path fill="none" stroke="black" d="M192.6,-288.05C200.46,-277.05 210.67,-262.76 218.51,-251.79"/>
</g>
<!-- code0 -->
<g id="node14" class="node">
<title>code0</title>
<text text-anchor="middle" x="411.5" y="-372.95" font-family="Times,serif" font-size="14.00">Statements</text>
</g>
<!-- code0&#45;&#45;stmt5 -->
<g id="edge13" class="edge">
<title>code0&#45;&#45;stmt5</title>
<path fill="none" stroke="black" d="M373.61,-365.52C329.84,-352.25 258.38,-330.6 215.75,-317.68"/>
</g>
<!-- stmt11 -->
<g id="node15" class="node">
<title>stmt11</title>
<text text-anchor="middle" x="411.5" y="-300.95" font-family="Times,serif" font-size="14.00">Statement</text>
</g>
<!-- code0&#45;&#45;stmt11 -->
<g id="edge14" class="edge">
<title>code0&#45;&#45;stmt11</title>
<path fill="none" stroke="black" d="M411.5,-360.05C411.5,-349.05 411.5,-334.76 411.5,-323.79"/>
</g>
<!-- 10 -->
<g id="node24" class="node">
<title>10</title>
<text text-anchor="middle" x="411.5" y="-228.95" font-family="Times,serif" font-size="14.00">BinaryExpression</text>
</g>
<!-- stmt11&#45;&#45;10 -->
<g id="edge25" class="edge">
<title>stmt11&#45;&#45;10</title>
<path fill="none" stroke="black" d="M411.5,-288.05C411.5,-277.05 411.5,-262.76 411.5,-251.79"/>
</g>
<!-- 11 -->
<g id="node26" class="node">
<title>11</title>
<text text-anchor="middle" x="309.5" y="-228.95" font-family="Times,serif" font-size="14.00">PRINT</text>
</g>
<!-- stmt11&#45;&#45;11 -->
<g id="edge24" class="edge">
<title>stmt11&#45;&#45;11</title>
<path fill="none" stroke="black" d="M386.81,-288.05C370.77,-277.05 349.96,-262.76 333.96,-251.79"/>
</g>
<!-- 11; -->
<g id="node27" class="node">
<title>11;</title>
<text text-anchor="middle" x="512.5" y="-228.95" font-family="Times,serif" font-size="14.00">;</text>
</g>
<!-- stmt11&#45;&#45;11; -->
<g id="edge26" class="edge">
<title>stmt11&#45;&#45;11;</title>
<path fill="none" stroke="black" d="M435.95,-288.05C451.83,-277.05 472.44,-262.76 488.28,-251.79"/>
</g>
<!-- 6 -->
<g id="node16" class="node">
<title>6</title>
<text text-anchor="middle" x="339.5" y="-156.95" font-family="Times,serif" font-size="14.00">INT</text>
</g>
<!-- 6v -->
<g id="node17" class="node">
<title>6v</title>
<text text-anchor="middle" x="357.5" y="-84.95" font-family="Times,serif" font-size="14.00">5</text>
</g>
<!-- 6&#45;&#45;6v -->
<g id="edge15" class="edge">
<title>6&#45;&#45;6v</title>
<path fill="none" stroke="black" d="M343.86,-144.05C346.69,-133.05 350.36,-118.76 353.18,-107.79"/>
</g>
<!-- 7 -->
<g id="node18" class="node">
<title>7</title>
<text text-anchor="middle" x="440.5" y="-84.95" font-family="Times,serif" font-size="14.00">INT</text>
</g>
<!-- 7v -->
<g id="node19" class="node">
<title>7v</title>
<text text-anchor="middle" x="440.5" y="-12.95" font-family="Times,serif" font-size="14.00">7</text>
</g>
<!-- 7&#45;&#45;7v -->
<g id="edge16" class="edge">
<title>7&#45;&#45;7v</title>
<path fill="none" stroke="black" d="M440.5,-72.05C440.5,-61.05 440.5,-46.76 440.5,-35.79"/>
</g>
<!-- 8 -->
<g id="node20" class="node">
<title>8</title>
<text text-anchor="middle" x="584.5" y="-84.95" font-family="Times,serif" font-size="14.00">INT</text>
</g>
<!-- 8v -->
<g id="node21" class="node">
<title>8v</title>
<text text-anchor="middle" x="584.5" y="-12.95" font-family="Times,serif" font-size="14.00">9</text>
</g>
<!-- 8&#45;&#45;8v -->
<g id="edge17" class="edge">
<title>8&#45;&#45;8v</title>
<path fill="none" stroke="black" d="M584.5,-72.05C584.5,-61.05 584.5,-46.76 584.5,-35.79"/>
</g>
<!-- 9 -->
<g id="node22" class="node">
<title>9</title>
<text text-anchor="middle" x="512.5" y="-156.95" font-family="Times,serif" font-size="14.00">BinaryExpression</text>
</g>
<!-- 9&#45;&#45;7 -->
<g id="edge18" class="edge">
<title>9&#45;&#45;7</title>
<path fill="none" stroke="black" d="M495.07,-144.05C483.75,-133.05 469.06,-118.76 457.77,-107.79"/>
</g>
<!-- 9&#45;&#45;8 -->
<g id="edge20" class="edge">
<title>9&#45;&#45;8</title>
<path fill="none" stroke="black" d="M529.93,-144.05C541.25,-133.05 555.94,-118.76 567.23,-107.79"/>
</g>
<!-- 9op -->
<g id="node23" class="node">
<title>9op</title>
<text text-anchor="middle" x="512.5" y="-84.95" font-family="Times,serif" font-size="14.00">*</text>
</g>
<!-- 9&#45;&#45;9op -->
<g id="edge19" class="edge">
<title>9&#45;&#45;9op</title>
<path fill="none" stroke="black" d="M512.5,-144.05C512.5,-133.05 512.5,-118.76 512.5,-107.79"/>
</g>
<!-- 10&#45;&#45;6 -->
<g id="edge21" class="edge">
<title>10&#45;&#45;6</title>
<path fill="none" stroke="black" d="M394.07,-216.05C382.75,-205.05 368.06,-190.76 356.77,-179.79"/>
</g>
<!-- 10&#45;&#45;9 -->
<g id="edge23" class="edge">
<title>10&#45;&#45;9</title>
<path fill="none" stroke="black" d="M435.95,-216.05C451.83,-205.05 472.44,-190.76 488.28,-179.79"/>
</g>
<!-- 10op -->
<g id="node25" class="node">
<title>10op</title>
<text text-anchor="middle" x="411.5" y="-156.95" font-family="Times,serif" font-size="14.00">+</text>
</g>
<!-- 10&#45;&#45;10op -->
<g id="edge22" class="edge">
<title>10&#45;&#45;10op</title>
<path fill="none" stroke="black" d="M411.5,-216.05C411.5,-205.05 411.5,-190.76 411.5,-179.79"/>
</g>
<!-- code1 -->
<g id="node28" class="node">
<title>code1</title>
<text text-anchor="middle" x="456.5" y="-444.95" font-family="Times,serif" font-size="14.00">Statements</text>
</g>
<!-- code1&#45;&#45;code0 -->
<g id="edge27" class="edge">
<title>code1&#45;&#45;code0</title>
<path fill="none" stroke="black" d="M445.61,-432.05C438.53,-421.05 429.35,-406.76 422.29,-395.79"/>
</g>
<!-- stmt17 -->
<g id="node29" class="node">
<title>stmt17</title>
<text text-anchor="middle" x="506.5" y="-372.95" font-family="Times,serif" font-size="14.00">Statement</text>
</g>
<!-- code1&#45;&#45;stmt17 -->
<g id="edge28" class="edge">
<title>code1&#45;&#45;stmt17</title>
<path fill="none" stroke="black" d="M468.6,-432.05C476.46,-421.05 486.67,-406.76 494.51,-395.79"/>
</g>
<!-- 16 -->
<g id="node38" class="node">
<title>16</title>
<text text-anchor="middle" x="601.5" y="-300.95" font-family="Times,serif" font-size="14.00">BinaryExpression</text>
</g>
<!-- stmt17&#45;&#45;16 -->
<g id="edge39" class="edge">
<title>stmt17&#45;&#45;16</title>
<path fill="none" stroke="black" d="M529.5,-360.05C544.43,-349.05 563.82,-334.76 578.71,-323.79"/>
</g>
<!-- 17 -->
<g id="node40" class="node">
<title>17</title>
<text text-anchor="middle" x="499.5" y="-300.95" font-family="Times,serif" font-size="14.00">PRINT</text>
</g>
<!-- stmt17&#45;&#45;17 -->
<g id="edge38" class="edge">
<title>stmt17&#45;&#45;17</title>
<path fill="none" stroke="black" d="M504.81,-360.05C503.7,-349.05 502.28,-334.76 501.18,-323.79"/>
</g>
<!-- 17; -->
<g id="node41" class="node">
<title>17;</title>
<text text-anchor="middle" x="702.5" y="-300.95" font-family="Times,serif" font-size="14.00">;</text>
</g>
<!-- stmt17&#45;&#45;17; -->
<g id="edge40" class="edge">
<title>stmt17&#45;&#45;17;</title>
<path fill="none" stroke="black" d="M541.58,-366.72C574.3,-356.82 624.25,-340.9 666.5,-324 669.45,-322.82 672.51,-321.51 675.53,-320.17"/>
</g>
<!-- 12 -->
<g id="node30" class="node">
<title>12</title>
<text text-anchor="middle" x="593.5" y="-228.95" font-family="Times,serif" font-size="14.00">INT</text>
</g>
<!-- 12v -->
<g id="node31" class="node">
<title>12v</title>
<text text-anchor="middle" x="613.5" y="-156.95" font-family="Times,serif" font-size="14.00">10</text>
</g>
<!-- 12&#45;&#45;12v -->
<g id="edge29" class="edge">
<title>12&#45;&#45;12v</title>
<path fill="none" stroke="black" d="M598.34,-216.05C601.49,-205.05 605.57,-190.76 608.7,-179.79"/>
</g>
<!-- 13 -->
<g id="node32" class="node">
<title>13</title>
<text text-anchor="middle" x="694.5" y="-156.95" font-family="Times,serif" font-size="14.00">INT</text>
</g>
<!-- 13v -->
<g id="node33" class="node">
<title>13v</title>
<text text-anchor="middle" x="694.5" y="-84.95" font-family="Times,serif" font-size="14.00">7</text>
</g>
<!-- 13&#45;&#45;13v -->
<g id="edge30" class="edge">
<title>13&#45;&#45;13v</title>
<path fill="none" stroke="black" d="M694.5,-144.05C694.5,-133.05 694.5,-118.76 694.5,-107.79"/>
</g>
<!-- 14 -->
<g id="node34" class="node">
<title>14</title>
<text text-anchor="middle" x="838.5" y="-156.95" font-family="Times,serif" font-size="14.00">INT</text>
</g>
<!-- 14v -->
<g id="node35" class="node">
<title>14v</title>
<text text-anchor="middle" x="838.5" y="-84.95" font-family="Times,serif" font-size="14.00">9</text>
</g>
<!-- 14&#45;&#45;14v -->
<g id="edge31" class="edge">
<title>14&#45;&#45;14v</title>
<path fill="none" stroke="black" d="M838.5,-144.05C838.5,-133.05 838.5,-118.76 838.5,-107.79"/>
</g>
<!-- 15 -->
<g id="node36" class="node">
<title>15</title>
<text text-anchor="middle" x="766.5" y="-228.95" font-family="Times,serif" font-size="14.00">BinaryExpression</text>
</g>
<!-- 15&#45;&#45;13 -->
<g id="edge32" class="edge">
<title>15&#45;&#45;13</title>
<path fill="none" stroke="black" d="M749.07,-216.05C737.75,-205.05 723.06,-190.76 711.77,-179.79"/>
</g>
<!-- 15&#45;&#45;14 -->
<g id="edge34" class="edge">
<title>15&#45;&#45;14</title>
<path fill="none" stroke="black" d="M783.93,-216.05C795.25,-205.05 809.94,-190.76 821.23,-179.79"/>
</g>
<!-- 15op -->
<g id="node37" class="node">
<title>15op</title>
<text text-anchor="middle" x="766.5" y="-156.95" font-family="Times,serif" font-size="14.00">*</text>
</g>
<!-- 15&#45;&#45;15op -->
<g id="edge33" class="edge">
<title>15&#45;&#45;15op</title>
<path fill="none" stroke="black" d="M766.5,-216.05C766.5,-205.05 766.5,-190.76 766.5,-179.79"/>
</g>
<!-- 16&#45;&#45;12 -->
<g id="edge35" class="edge">
<title>16&#45;&#45;12</title>
<path fill="none" stroke="black" d="M599.56,-288.05C598.31,-277.05 596.67,-262.76 595.42,-251.79"/>
</g>
<!-- 16&#45;&#45;15 -->
<g id="edge37" class="edge">
<title>16&#45;&#45;15</title>
<path fill="none" stroke="black" d="M641.44,-288.05C667.29,-277.09 700.81,-262.87 726.64,-251.91"/>
</g>
<!-- 16op -->
<g id="node39" class="node">
<title>16op</title>
<text text-anchor="middle" x="665.5" y="-228.95" font-family="Times,serif" font-size="14.00">+</text>
</g>
<!-- 16&#45;&#45;16op -->
<g id="edge36" class="edge">
<title>16&#45;&#45;16op</title>
<path fill="none" stroke="black" d="M616.99,-288.05C627.06,-277.05 640.12,-262.76 650.15,-251.79"/>
</g>
<!-- code2 -->
<g id="node42" class="node">
<title>code2</title>
<text text-anchor="middle" x="497.5" y="-516.95" font-family="Times,serif" font-size="14.00">Statements</text>
</g>
<!-- code2&#45;&#45;code1 -->
<g id="edge41" class="edge">
<title>code2&#45;&#45;code1</title>
<path fill="none" stroke="black" d="M487.58,-504.05C481.13,-493.05 472.76,-478.76 466.33,-467.79"/>
</g>
<!-- EOF -->
<g id="node43" class="node">
<title>EOF</title>
<text text-anchor="middle" x="539.5" y="-444.95" font-family="Times,serif" font-size="14.00">EOF</text>
</g>
<!-- code2&#45;&#45;EOF -->
<g id="edge42" class="edge">
<title>code2&#45;&#45;EOF</title>
<path fill="none" stroke="black" d="M507.67,-504.05C514.27,-493.05 522.84,-478.76 529.43,-467.79"/>
</g>
</g>
</svg>
