<?xml version="1.0" encoding="UTF-8" standalone="no"?>
<!DOCTYPE svg PUBLIC "-//W3C//DTD SVG 1.1//EN"
 "http://www.w3.org/Graphics/SVG/1.1/DTD/svg11.dtd">
<!-- Generated by graphviz version 9.0.0 (0)
 -->
<!-- Title: AST Pages: 1 -->
<svg width="3215pt" height="1196pt"
 viewBox="0.00 0.00 3214.50 1196.00" xmlns="http://www.w3.org/2000/svg" xmlns:xlink="http://www.w3.org/1999/xlink">
<g id="graph0" class="graph" transform="scale(1 1) rotate(0) translate(4 1192)">
<title>AST</title>
<polygon fill="white" stroke="none" points="-4,4 -4,-1192 3210.5,-1192 3210.5,4 -4,4"/>
<!-- 270 -->
<g id="node1" class="node">
<title>270</title>
<text text-anchor="middle" x="33.5" y="-12.95" font-family="Times,serif" font-size="14.00">CREATE</text>
</g>
<!-- 270table -->
<g id="node2" class="node">
<title>270table</title>
<text text-anchor="middle" x="114.5" y="-12.95" font-family="Times,serif" font-size="14.00">TABLE</text>
</g>
<!-- 270i -->
<g id="node3" class="node">
<title>270i</title>
<text text-anchor="middle" x="193.5" y="-12.95" font-family="Times,serif" font-size="14.00">personas</text>
</g>
<!-- 270cols -->
<g id="node4" class="node">
<title>270cols</title>
<text text-anchor="middle" x="275.5" y="-12.95" font-family="Times,serif" font-size="14.00">Columns</text>
</g>
<!-- stmt270 -->
<g id="node5" class="node">
<title>stmt270</title>
<text text-anchor="middle" x="193.5" y="-84.95" font-family="Times,serif" font-size="14.00">Statement</text>
</g>
<!-- stmt270&#45;&#45;270 -->
<g id="edge1" class="edge">
<title>stmt270&#45;&#45;270</title>
<path fill="none" stroke="black" d="M158.39,-73.64C131.16,-61.73 93.67,-45.33 66.89,-33.61"/>
</g>
<!-- stmt270&#45;&#45;270table -->
<g id="edge2" class="edge">
<title>stmt270&#45;&#45;270table</title>
<path fill="none" stroke="black" d="M174.38,-72.05C161.96,-61.05 145.83,-46.76 133.45,-35.79"/>
</g>
<!-- stmt270&#45;&#45;270i -->
<g id="edge3" class="edge">
<title>stmt270&#45;&#45;270i</title>
<path fill="none" stroke="black" d="M193.5,-72.05C193.5,-61.05 193.5,-46.76 193.5,-35.79"/>
</g>
<!-- stmt270&#45;&#45;270cols -->
<g id="edge4" class="edge">
<title>stmt270&#45;&#45;270cols</title>
<path fill="none" stroke="black" d="M213.35,-72.05C226.24,-61.05 242.98,-46.76 255.83,-35.79"/>
</g>
<!-- 270; -->
<g id="node6" class="node">
<title>270;</title>
<text text-anchor="middle" x="353.5" y="-12.95" font-family="Times,serif" font-size="14.00">;</text>
</g>
<!-- stmt270&#45;&#45;270; -->
<g id="edge5" class="edge">
<title>stmt270&#45;&#45;270;</title>
<path fill="none" stroke="black" d="M228.66,-74.38C253.57,-63.93 287.71,-49.39 317.5,-36 320.53,-34.64 323.68,-33.19 326.81,-31.74"/>
</g>
<!-- code0 -->
<g id="node7" class="node">
<title>code0</title>
<text text-anchor="middle" x="277.5" y="-156.95" font-family="Times,serif" font-size="14.00">Statements</text>
</g>
<!-- code0&#45;&#45;stmt270 -->
<g id="edge6" class="edge">
<title>code0&#45;&#45;stmt270</title>
<path fill="none" stroke="black" d="M257.17,-144.05C243.96,-133.05 226.82,-118.76 213.65,-107.79"/>
</g>
<!-- stmt310 -->
<g id="node8" class="node">
<title>stmt310</title>
<text text-anchor="middle" x="277.5" y="-84.95" font-family="Times,serif" font-size="14.00">stmt310</text>
</g>
<!-- code0&#45;&#45;stmt310 -->
<g id="edge7" class="edge">
<title>code0&#45;&#45;stmt310</title>
<path fill="none" stroke="black" d="M277.5,-144.05C277.5,-133.05 277.5,-118.76 277.5,-107.79"/>
</g>
<!-- undefined -->
<g id="node9" class="node">
<title>undefined</title>
<text text-anchor="middle" x="2753.5" y="-1164.95" font-family="Times,serif" font-size="14.00">undefined</text>
</g>
<!-- code1 -->
<g id="node10" class="node">
<title>code1</title>
<text text-anchor="middle" x="356.5" y="-228.95" font-family="Times,serif" font-size="14.00">Statements</text>
</g>
<!-- code1&#45;&#45;code0 -->
<g id="edge8" class="edge">
<title>code1&#45;&#45;code0</title>
<path fill="none" stroke="black" d="M337.38,-216.05C324.96,-205.05 308.83,-190.76 296.45,-179.79"/>
</g>
<!-- stmt311 -->
<g id="node11" class="node">
<title>stmt311</title>
<text text-anchor="middle" x="472.5" y="-156.95" font-family="Times,serif" font-size="14.00">Statement</text>
</g>
<!-- code1&#45;&#45;stmt311 -->
<g id="edge9" class="edge">
<title>code1&#45;&#45;stmt311</title>
<path fill="none" stroke="black" d="M384.58,-216.05C402.82,-205.05 426.49,-190.76 444.68,-179.79"/>
</g>
<!-- 311 -->
<g id="node12" class="node">
<title>311</title>
<text text-anchor="middle" x="358.5" y="-84.95" font-family="Times,serif" font-size="14.00">SELECT</text>
</g>
<!-- stmt311&#45;&#45;311 -->
<g id="edge10" class="edge">
<title>stmt311&#45;&#45;311</title>
<path fill="none" stroke="black" d="M444.9,-144.05C426.98,-133.05 403.71,-118.76 385.84,-107.79"/>
</g>
<!-- 311selection -->
<g id="node13" class="node">
<title>311selection</title>
<text text-anchor="middle" x="436.5" y="-84.95" font-family="Times,serif" font-size="14.00">*</text>
</g>
<!-- stmt311&#45;&#45;311selection -->
<g id="edge11" class="edge">
<title>stmt311&#45;&#45;311selection</title>
<path fill="none" stroke="black" d="M463.79,-144.05C458.13,-133.05 450.78,-118.76 445.13,-107.79"/>
</g>
<!-- 311from -->
<g id="node14" class="node">
<title>311from</title>
<text text-anchor="middle" x="509.5" y="-84.95" font-family="Times,serif" font-size="14.00">FROM</text>
</g>
<!-- stmt311&#45;&#45;311from -->
<g id="edge12" class="edge">
<title>stmt311&#45;&#45;311from</title>
<path fill="none" stroke="black" d="M481.46,-144.05C487.27,-133.05 494.82,-118.76 500.63,-107.79"/>
</g>
<!-- 311i -->
<g id="node15" class="node">
<title>311i</title>
<text text-anchor="middle" x="586.5" y="-84.95" font-family="Times,serif" font-size="14.00">personas</text>
</g>
<!-- stmt311&#45;&#45;311i -->
<g id="edge13" class="edge">
<title>stmt311&#45;&#45;311i</title>
<path fill="none" stroke="black" d="M500.1,-144.05C518.02,-133.05 541.29,-118.76 559.16,-107.79"/>
</g>
<!-- 311; -->
<g id="node16" class="node">
<title>311;</title>
<text text-anchor="middle" x="663.5" y="-84.95" font-family="Times,serif" font-size="14.00">;</text>
</g>
<!-- stmt311&#45;&#45;311; -->
<g id="edge14" class="edge">
<title>stmt311&#45;&#45;311;</title>
<path fill="none" stroke="black" d="M507.69,-150.21C539.38,-140.19 587.05,-124.41 627.5,-108 630.45,-106.8 633.5,-105.49 636.52,-104.14"/>
</g>
<!-- code2 -->
<g id="node17" class="node">
<title>code2</title>
<text text-anchor="middle" x="442.5" y="-300.95" font-family="Times,serif" font-size="14.00">Statements</text>
</g>
<!-- code2&#45;&#45;code1 -->
<g id="edge15" class="edge">
<title>code2&#45;&#45;code1</title>
<path fill="none" stroke="black" d="M421.68,-288.05C408.16,-277.05 390.61,-262.76 377.13,-251.79"/>
</g>
<!-- stmt331 -->
<g id="node18" class="node">
<title>stmt331</title>
<text text-anchor="middle" x="442.5" y="-228.95" font-family="Times,serif" font-size="14.00">stmt331</text>
</g>
<!-- code2&#45;&#45;stmt331 -->
<g id="edge16" class="edge">
<title>code2&#45;&#45;stmt331</title>
<path fill="none" stroke="black" d="M442.5,-288.05C442.5,-277.05 442.5,-262.76 442.5,-251.79"/>
</g>
<!-- code3 -->
<g id="node19" class="node">
<title>code3</title>
<text text-anchor="middle" x="637.5" y="-372.95" font-family="Times,serif" font-size="14.00">Statements</text>
</g>
<!-- code3&#45;&#45;code2 -->
<g id="edge17" class="edge">
<title>code3&#45;&#45;code2</title>
<path fill="none" stroke="black" d="M599.9,-363.5C565.48,-351.15 514.8,-332.95 480.31,-320.57"/>
</g>
<!-- stmt332 -->
<g id="node20" class="node">
<title>stmt332</title>
<text text-anchor="middle" x="637.5" y="-300.95" font-family="Times,serif" font-size="14.00">Statement</text>
</g>
<!-- code3&#45;&#45;stmt332 -->
<g id="edge18" class="edge">
<title>code3&#45;&#45;stmt332</title>
<path fill="none" stroke="black" d="M637.5,-360.05C637.5,-349.05 637.5,-334.76 637.5,-323.79"/>
</g>
<!-- 332 -->
<g id="node21" class="node">
<title>332</title>
<text text-anchor="middle" x="520.5" y="-228.95" font-family="Times,serif" font-size="14.00">ALTER</text>
</g>
<!-- stmt332&#45;&#45;332 -->
<g id="edge19" class="edge">
<title>stmt332&#45;&#45;332</title>
<path fill="none" stroke="black" d="M609.18,-288.05C590.78,-277.05 566.9,-262.76 548.56,-251.79"/>
</g>
<!-- 332table -->
<g id="node22" class="node">
<title>332table</title>
<text text-anchor="middle" x="598.5" y="-228.95" font-family="Times,serif" font-size="14.00">TABLE</text>
</g>
<!-- stmt332&#45;&#45;332table -->
<g id="edge20" class="edge">
<title>stmt332&#45;&#45;332table</title>
<path fill="none" stroke="black" d="M628.06,-288.05C621.93,-277.05 613.97,-262.76 607.85,-251.79"/>
</g>
<!-- 332i -->
<g id="node23" class="node">
<title>332i</title>
<text text-anchor="middle" x="677.5" y="-228.95" font-family="Times,serif" font-size="14.00">personas</text>
</g>
<!-- stmt332&#45;&#45;332i -->
<g id="edge21" class="edge">
<title>stmt332&#45;&#45;332i</title>
<path fill="none" stroke="black" d="M647.18,-288.05C653.47,-277.05 661.64,-262.76 667.91,-251.79"/>
</g>
<!-- 332action -->
<g id="node24" class="node">
<title>332action</title>
<text text-anchor="middle" x="766.5" y="-228.95" font-family="Times,serif" font-size="14.00">DROP,sexo</text>
</g>
<!-- stmt332&#45;&#45;332action -->
<g id="edge22" class="edge">
<title>stmt332&#45;&#45;332action</title>
<path fill="none" stroke="black" d="M668.73,-288.05C689.01,-277.05 715.34,-262.76 735.56,-251.79"/>
</g>
<!-- 332; -->
<g id="node25" class="node">
<title>332;</title>
<text text-anchor="middle" x="851.5" y="-228.95" font-family="Times,serif" font-size="14.00">;</text>
</g>
<!-- stmt332&#45;&#45;332; -->
<g id="edge23" class="edge">
<title>stmt332&#45;&#45;332;</title>
<path fill="none" stroke="black" d="M672.45,-291.12C675.49,-290.02 678.54,-288.97 681.5,-288 739.7,-268.94 756.92,-272.86 814.5,-252 817.82,-250.8 821.26,-249.41 824.64,-247.97"/>
</g>
<!-- code4 -->
<g id="node26" class="node">
<title>code4</title>
<text text-anchor="middle" x="827.5" y="-444.95" font-family="Times,serif" font-size="14.00">Statements</text>
</g>
<!-- code4&#45;&#45;code3 -->
<g id="edge24" class="edge">
<title>code4&#45;&#45;code3</title>
<path fill="none" stroke="black" d="M789.51,-435C756.37,-422.79 708.55,-405.17 675.43,-392.97"/>
</g>
<!-- stmt333 -->
<g id="node27" class="node">
<title>stmt333</title>
<text text-anchor="middle" x="827.5" y="-372.95" font-family="Times,serif" font-size="14.00">Statement</text>
</g>
<!-- code4&#45;&#45;stmt333 -->
<g id="edge25" class="edge">
<title>code4&#45;&#45;stmt333</title>
<path fill="none" stroke="black" d="M827.5,-432.05C827.5,-421.05 827.5,-406.76 827.5,-395.79"/>
</g>
<!-- 333 -->
<g id="node28" class="node">
<title>333</title>
<text text-anchor="middle" x="720.5" y="-300.95" font-family="Times,serif" font-size="14.00">ALTER</text>
</g>
<!-- stmt333&#45;&#45;333 -->
<g id="edge26" class="edge">
<title>stmt333&#45;&#45;333</title>
<path fill="none" stroke="black" d="M801.6,-360.05C784.78,-349.05 762.94,-334.76 746.16,-323.79"/>
</g>
<!-- 333table -->
<g id="node29" class="node">
<title>333table</title>
<text text-anchor="middle" x="798.5" y="-300.95" font-family="Times,serif" font-size="14.00">TABLE</text>
</g>
<!-- stmt333&#45;&#45;333table -->
<g id="edge27" class="edge">
<title>stmt333&#45;&#45;333table</title>
<path fill="none" stroke="black" d="M820.48,-360.05C815.92,-349.05 810,-334.76 805.46,-323.79"/>
</g>
<!-- 333i -->
<g id="node30" class="node">
<title>333i</title>
<text text-anchor="middle" x="877.5" y="-300.95" font-family="Times,serif" font-size="14.00">personas</text>
</g>
<!-- stmt333&#45;&#45;333i -->
<g id="edge28" class="edge">
<title>stmt333&#45;&#45;333i</title>
<path fill="none" stroke="black" d="M839.6,-360.05C847.46,-349.05 857.67,-334.76 865.51,-323.79"/>
</g>
<!-- 333action -->
<g id="node31" class="node">
<title>333action</title>
<text text-anchor="middle" x="1034.5" y="-300.95" font-family="Times,serif" font-size="14.00">RENAME_C,check,verdadero_falso</text>
</g>
<!-- stmt333&#45;&#45;333action -->
<g id="edge29" class="edge">
<title>stmt333&#45;&#45;333action</title>
<path fill="none" stroke="black" d="M862.5,-363.28C865.54,-362.15 868.57,-361.04 871.5,-360 907.39,-347.24 948.14,-333.99 979.92,-323.93"/>
</g>
<!-- 333; -->
<g id="node32" class="node">
<title>333;</title>
<text text-anchor="middle" x="1187.5" y="-300.95" font-family="Times,serif" font-size="14.00">;</text>
</g>
<!-- stmt333&#45;&#45;333; -->
<g id="edge30" class="edge">
<title>stmt333&#45;&#45;333;</title>
<path fill="none" stroke="black" d="M862.8,-362.52C865.72,-361.58 868.64,-360.72 871.5,-360 993.12,-329.17 1031.08,-359.22 1151.5,-324 1154.55,-323.11 1157.67,-321.99 1160.73,-320.75"/>
</g>
<!-- code5 -->
<g id="node33" class="node">
<title>code5</title>
<text text-anchor="middle" x="1006.5" y="-516.95" font-family="Times,serif" font-size="14.00">Statements</text>
</g>
<!-- code5&#45;&#45;code4 -->
<g id="edge31" class="edge">
<title>code5&#45;&#45;code4</title>
<path fill="none" stroke="black" d="M968.54,-506.15C938.16,-494.28 895.77,-477.7 865.41,-465.82"/>
</g>
<!-- stmt334 -->
<g id="node34" class="node">
<title>stmt334</title>
<text text-anchor="middle" x="1006.5" y="-444.95" font-family="Times,serif" font-size="14.00">Statement</text>
</g>
<!-- code5&#45;&#45;stmt334 -->
<g id="edge32" class="edge">
<title>code5&#45;&#45;stmt334</title>
<path fill="none" stroke="black" d="M1006.5,-504.05C1006.5,-493.05 1006.5,-478.76 1006.5,-467.79"/>
</g>
<!-- 334 -->
<g id="node35" class="node">
<title>334</title>
<text text-anchor="middle" x="913.5" y="-372.95" font-family="Times,serif" font-size="14.00">SELECT</text>
</g>
<!-- stmt334&#45;&#45;334 -->
<g id="edge33" class="edge">
<title>stmt334&#45;&#45;334</title>
<path fill="none" stroke="black" d="M983.99,-432.05C969.37,-421.05 950.39,-406.76 935.81,-395.79"/>
</g>
<!-- 334selection -->
<g id="node36" class="node">
<title>334selection</title>
<text text-anchor="middle" x="991.5" y="-372.95" font-family="Times,serif" font-size="14.00">*</text>
</g>
<!-- stmt334&#45;&#45;334selection -->
<g id="edge34" class="edge">
<title>stmt334&#45;&#45;334selection</title>
<path fill="none" stroke="black" d="M1002.87,-432.05C1000.51,-421.05 997.45,-406.76 995.1,-395.79"/>
</g>
<!-- 334from -->
<g id="node37" class="node">
<title>334from</title>
<text text-anchor="middle" x="1064.5" y="-372.95" font-family="Times,serif" font-size="14.00">FROM</text>
</g>
<!-- stmt334&#45;&#45;334from -->
<g id="edge35" class="edge">
<title>stmt334&#45;&#45;334from</title>
<path fill="none" stroke="black" d="M1020.54,-432.05C1029.66,-421.05 1041.5,-406.76 1050.59,-395.79"/>
</g>
<!-- 334i -->
<g id="node38" class="node">
<title>334i</title>
<text text-anchor="middle" x="1141.5" y="-372.95" font-family="Times,serif" font-size="14.00">personas</text>
</g>
<!-- stmt334&#45;&#45;334i -->
<g id="edge36" class="edge">
<title>stmt334&#45;&#45;334i</title>
<path fill="none" stroke="black" d="M1039.18,-432.05C1060.72,-420.89 1088.77,-406.34 1110.05,-395.31"/>
</g>
<!-- 334; -->
<g id="node39" class="node">
<title>334;</title>
<text text-anchor="middle" x="1218.5" y="-372.95" font-family="Times,serif" font-size="14.00">;</text>
</g>
<!-- stmt334&#45;&#45;334; -->
<g id="edge37" class="edge">
<title>stmt334&#45;&#45;334;</title>
<path fill="none" stroke="black" d="M1041.45,-435.13C1044.5,-434.03 1047.54,-432.97 1050.5,-432 1108.27,-413.02 1125.46,-417.06 1182.5,-396 1185.48,-394.9 1188.56,-393.64 1191.59,-392.33"/>
</g>
<!-- code6 -->
<g id="node40" class="node">
<title>code6</title>
<text text-anchor="middle" x="1332.5" y="-588.95" font-family="Times,serif" font-size="14.00">Statements</text>
</g>
<!-- code6&#45;&#45;code5 -->
<g id="edge38" class="edge">
<title>code6&#45;&#45;code5</title>
<path fill="none" stroke="black" d="M1294.79,-584.9C1232.1,-571.44 1107.17,-544.62 1044.38,-531.13"/>
</g>
<!-- stmt343 -->
<g id="node41" class="node">
<title>stmt343</title>
<text text-anchor="middle" x="1332.5" y="-516.95" font-family="Times,serif" font-size="14.00">Statement</text>
</g>
<!-- code6&#45;&#45;stmt343 -->
<g id="edge39" class="edge">
<title>code6&#45;&#45;stmt343</title>
<path fill="none" stroke="black" d="M1332.5,-576.05C1332.5,-565.05 1332.5,-550.76 1332.5,-539.79"/>
</g>
<!-- 342 -->
<g id="node55" class="node">
<title>342</title>
<text text-anchor="middle" x="1523.5" y="-444.95" font-family="Times,serif" font-size="14.00">BinaryExpression</text>
</g>
<!-- stmt343&#45;&#45;342 -->
<g id="edge58" class="edge">
<title>stmt343&#45;&#45;342</title>
<path fill="none" stroke="black" d="M1367.53,-508.16C1398.33,-496.87 1443.39,-480.36 1477.17,-467.98"/>
</g>
<!-- 343 -->
<g id="node57" class="node">
<title>343</title>
<text text-anchor="middle" x="1093.5" y="-444.95" font-family="Times,serif" font-size="14.00">UPDATE</text>
</g>
<!-- stmt343&#45;&#45;343 -->
<g id="edge53" class="edge">
<title>stmt343&#45;&#45;343</title>
<path fill="none" stroke="black" d="M1297.45,-512.79C1257.96,-503.24 1192.04,-486.42 1136.5,-468 1133.45,-466.99 1130.31,-465.88 1127.17,-464.73"/>
</g>
<!-- 343i -->
<g id="node58" class="node">
<title>343i</title>
<text text-anchor="middle" x="1177.5" y="-444.95" font-family="Times,serif" font-size="14.00">personas</text>
</g>
<!-- stmt343&#45;&#45;343i -->
<g id="edge54" class="edge">
<title>stmt343&#45;&#45;343i</title>
<path fill="none" stroke="black" d="M1297.33,-505.12C1270.8,-493.14 1234.73,-476.84 1209.11,-465.28"/>
</g>
<!-- 343set -->
<g id="node59" class="node">
<title>343set</title>
<text text-anchor="middle" x="1254.5" y="-444.95" font-family="Times,serif" font-size="14.00">SET</text>
</g>
<!-- stmt343&#45;&#45;343set -->
<g id="edge55" class="edge">
<title>stmt343&#45;&#45;343set</title>
<path fill="none" stroke="black" d="M1313.62,-504.05C1301.35,-493.05 1285.44,-478.76 1273.21,-467.79"/>
</g>
<!-- 343selection -->
<g id="node60" class="node">
<title>343selection</title>
<text text-anchor="middle" x="1332.5" y="-444.95" font-family="Times,serif" font-size="14.00">Selection</text>
</g>
<!-- stmt343&#45;&#45;343selection -->
<g id="edge56" class="edge">
<title>stmt343&#45;&#45;343selection</title>
<path fill="none" stroke="black" d="M1332.5,-504.05C1332.5,-493.05 1332.5,-478.76 1332.5,-467.79"/>
</g>
<!-- 343where -->
<g id="node61" class="node">
<title>343where</title>
<text text-anchor="middle" x="1416.5" y="-444.95" font-family="Times,serif" font-size="14.00">WHERE</text>
</g>
<!-- stmt343&#45;&#45;343where -->
<g id="edge57" class="edge">
<title>stmt343&#45;&#45;343where</title>
<path fill="none" stroke="black" d="M1352.83,-504.05C1366.04,-493.05 1383.18,-478.76 1396.35,-467.79"/>
</g>
<!-- 343; -->
<g id="node62" class="node">
<title>343;</title>
<text text-anchor="middle" x="1624.5" y="-444.95" font-family="Times,serif" font-size="14.00">;</text>
</g>
<!-- stmt343&#45;&#45;343; -->
<g id="edge59" class="edge">
<title>stmt343&#45;&#45;343;</title>
<path fill="none" stroke="black" d="M1367.55,-516.43C1417.52,-509.32 1511.67,-493.69 1588.5,-468 1591.52,-466.99 1594.61,-465.8 1597.66,-464.52"/>
</g>
<!-- 336 -->
<g id="node42" class="node">
<title>336</title>
<text text-anchor="middle" x="1273.5" y="-300.95" font-family="Times,serif" font-size="14.00">Identifier</text>
</g>
<!-- 336&#45;&#45;336 -->
<g id="edge40" class="edge">
<title>336&#45;&#45;336</title>
<path fill="none" stroke="black" d="M1306.45,-319.49C1316.63,-319.21 1324.62,-314.72 1324.62,-306 1324.62,-297.28 1316.63,-292.79 1306.45,-292.51"/>
</g>
<!-- 336v -->
<g id="node43" class="node">
<title>336v</title>
<text text-anchor="middle" x="2833.5" y="-1164.95" font-family="Times,serif" font-size="14.00">edad</text>
</g>
<!-- v -->
<g id="node44" class="node">
<title>v</title>
<text text-anchor="middle" x="2905.5" y="-1164.95" font-family="Times,serif" font-size="14.00">v</text>
</g>
<!-- 337 -->
<g id="node45" class="node">
<title>337</title>
<text text-anchor="middle" x="1441.5" y="-300.95" font-family="Times,serif" font-size="14.00">INT</text>
</g>
<!-- 337v -->
<g id="node46" class="node">
<title>337v</title>
<text text-anchor="middle" x="1441.5" y="-228.95" font-family="Times,serif" font-size="14.00">200</text>
</g>
<!-- 337&#45;&#45;337v -->
<g id="edge41" class="edge">
<title>337&#45;&#45;337v</title>
<path fill="none" stroke="black" d="M1441.5,-288.05C1441.5,-277.05 1441.5,-262.76 1441.5,-251.79"/>
</g>
<!-- 338 -->
<g id="node47" class="node">
<title>338</title>
<text text-anchor="middle" x="1389.5" y="-372.95" font-family="Times,serif" font-size="14.00">BinaryExpression</text>
</g>
<!-- 338&#45;&#45;336 -->
<g id="edge42" class="edge">
<title>338&#45;&#45;336</title>
<path fill="none" stroke="black" d="M1361.42,-360.05C1343.18,-349.05 1319.51,-334.76 1301.32,-323.79"/>
</g>
<!-- 338&#45;&#45;337 -->
<g id="edge44" class="edge">
<title>338&#45;&#45;337</title>
<path fill="none" stroke="black" d="M1402.09,-360.05C1410.26,-349.05 1420.88,-334.76 1429.03,-323.79"/>
</g>
<!-- 338op -->
<g id="node48" class="node">
<title>338op</title>
<text text-anchor="middle" x="1369.5" y="-300.95" font-family="Times,serif" font-size="14.00">&lt;=</text>
</g>
<!-- 338&#45;&#45;338op -->
<g id="edge43" class="edge">
<title>338&#45;&#45;338op</title>
<path fill="none" stroke="black" d="M1384.66,-360.05C1381.51,-349.05 1377.43,-334.76 1374.3,-323.79"/>
</g>
<!-- 339 -->
<g id="node49" class="node">
<title>339</title>
<text text-anchor="middle" x="1519.5" y="-300.95" font-family="Times,serif" font-size="14.00">Identifier</text>
</g>
<!-- 339&#45;&#45;339 -->
<g id="edge45" class="edge">
<title>339&#45;&#45;339</title>
<path fill="none" stroke="black" d="M1552.45,-319.49C1562.63,-319.21 1570.62,-314.72 1570.62,-306 1570.62,-297.28 1562.63,-292.79 1552.45,-292.51"/>
</g>
<!-- 339v -->
<g id="node50" class="node">
<title>339v</title>
<text text-anchor="middle" x="3002.5" y="-1164.95" font-family="Times,serif" font-size="14.00">verdadero_falso</text>
</g>
<!-- 340 -->
<g id="node51" class="node">
<title>340</title>
<text text-anchor="middle" x="1700.5" y="-300.95" font-family="Times,serif" font-size="14.00">BOOLEAN</text>
</g>
<!-- 340v -->
<g id="node52" class="node">
<title>340v</title>
<text text-anchor="middle" x="1700.5" y="-228.95" font-family="Times,serif" font-size="14.00">true</text>
</g>
<!-- 340&#45;&#45;340v -->
<g id="edge46" class="edge">
<title>340&#45;&#45;340v</title>
<path fill="none" stroke="black" d="M1700.5,-288.05C1700.5,-277.05 1700.5,-262.76 1700.5,-251.79"/>
</g>
<!-- 341 -->
<g id="node53" class="node">
<title>341</title>
<text text-anchor="middle" x="1595.5" y="-372.95" font-family="Times,serif" font-size="14.00">BinaryExpression</text>
</g>
<!-- 341&#45;&#45;339 -->
<g id="edge47" class="edge">
<title>341&#45;&#45;339</title>
<path fill="none" stroke="black" d="M1577.1,-360.05C1565.15,-349.05 1549.64,-334.76 1537.73,-323.79"/>
</g>
<!-- 341&#45;&#45;340 -->
<g id="edge49" class="edge">
<title>341&#45;&#45;340</title>
<path fill="none" stroke="black" d="M1620.92,-360.05C1637.43,-349.05 1658.85,-334.76 1675.32,-323.79"/>
</g>
<!-- 341op -->
<g id="node54" class="node">
<title>341op</title>
<text text-anchor="middle" x="1615.5" y="-300.95" font-family="Times,serif" font-size="14.00">=</text>
</g>
<!-- 341&#45;&#45;341op -->
<g id="edge48" class="edge">
<title>341&#45;&#45;341op</title>
<path fill="none" stroke="black" d="M1600.34,-360.05C1603.49,-349.05 1607.57,-334.76 1610.7,-323.79"/>
</g>
<!-- 342&#45;&#45;338 -->
<g id="edge50" class="edge">
<title>342&#45;&#45;338</title>
<path fill="none" stroke="black" d="M1491.06,-432.05C1469.99,-421.05 1442.65,-406.76 1421.64,-395.79"/>
</g>
<!-- 342&#45;&#45;341 -->
<g id="edge52" class="edge">
<title>342&#45;&#45;341</title>
<path fill="none" stroke="black" d="M1540.93,-432.05C1552.25,-421.05 1566.94,-406.76 1578.23,-395.79"/>
</g>
<!-- 342op -->
<g id="node56" class="node">
<title>342op</title>
<text text-anchor="middle" x="1494.5" y="-372.95" font-family="Times,serif" font-size="14.00">AND</text>
</g>
<!-- 342&#45;&#45;342op -->
<g id="edge51" class="edge">
<title>342&#45;&#45;342op</title>
<path fill="none" stroke="black" d="M1516.48,-432.05C1511.92,-421.05 1506,-406.76 1501.46,-395.79"/>
</g>
<!-- code7 -->
<g id="node63" class="node">
<title>code7</title>
<text text-anchor="middle" x="1660.5" y="-660.95" font-family="Times,serif" font-size="14.00">Statements</text>
</g>
<!-- code7&#45;&#45;code6 -->
<g id="edge60" class="edge">
<title>code7&#45;&#45;code6</title>
<path fill="none" stroke="black" d="M1622.55,-656.9C1559.4,-643.42 1433.45,-616.54 1370.36,-603.08"/>
</g>
<!-- stmt351 -->
<g id="node64" class="node">
<title>stmt351</title>
<text text-anchor="middle" x="1660.5" y="-588.95" font-family="Times,serif" font-size="14.00">Statement</text>
</g>
<!-- code7&#45;&#45;stmt351 -->
<g id="edge61" class="edge">
<title>code7&#45;&#45;stmt351</title>
<path fill="none" stroke="black" d="M1660.5,-648.05C1660.5,-637.05 1660.5,-622.76 1660.5,-611.79"/>
</g>
<!-- 350 -->
<g id="node77" class="node">
<title>350</title>
<text text-anchor="middle" x="1849.5" y="-516.95" font-family="Times,serif" font-size="14.00">BinaryExpression</text>
</g>
<!-- stmt351&#45;&#45;350 -->
<g id="edge79" class="edge">
<title>stmt351&#45;&#45;350</title>
<path fill="none" stroke="black" d="M1695.54,-579.39C1698.57,-578.24 1701.59,-577.09 1704.5,-576 1737.12,-563.74 1774,-550.26 1802.4,-539.97"/>
</g>
<!-- 351 -->
<g id="node79" class="node">
<title>351</title>
<text text-anchor="middle" x="1504.5" y="-516.95" font-family="Times,serif" font-size="14.00">UPDATE</text>
</g>
<!-- stmt351&#45;&#45;351 -->
<g id="edge75" class="edge">
<title>stmt351&#45;&#45;351</title>
<path fill="none" stroke="black" d="M1625.49,-577.29C1599.44,-565.6 1564.08,-549.74 1538.32,-538.18"/>
</g>
<!-- 351from -->
<g id="node80" class="node">
<title>351from</title>
<text text-anchor="middle" x="1583.5" y="-516.95" font-family="Times,serif" font-size="14.00">FROM</text>
</g>
<!-- stmt351&#45;&#45;351from -->
<g id="edge76" class="edge">
<title>stmt351&#45;&#45;351from</title>
<path fill="none" stroke="black" d="M1641.86,-576.05C1629.75,-565.05 1614.04,-550.76 1601.97,-539.79"/>
</g>
<!-- 351i -->
<g id="node81" class="node">
<title>351i</title>
<text text-anchor="middle" x="1660.5" y="-516.95" font-family="Times,serif" font-size="14.00">personas</text>
</g>
<!-- stmt351&#45;&#45;351i -->
<g id="edge77" class="edge">
<title>stmt351&#45;&#45;351i</title>
<path fill="none" stroke="black" d="M1660.5,-576.05C1660.5,-565.05 1660.5,-550.76 1660.5,-539.79"/>
</g>
<!-- 351where -->
<g id="node82" class="node">
<title>351where</title>
<text text-anchor="middle" x="1742.5" y="-516.95" font-family="Times,serif" font-size="14.00">WHERE</text>
</g>
<!-- stmt351&#45;&#45;351where -->
<g id="edge78" class="edge">
<title>stmt351&#45;&#45;351where</title>
<path fill="none" stroke="black" d="M1680.35,-576.05C1693.24,-565.05 1709.98,-550.76 1722.83,-539.79"/>
</g>
<!-- 351; -->
<g id="node83" class="node">
<title>351;</title>
<text text-anchor="middle" x="1950.5" y="-516.95" font-family="Times,serif" font-size="14.00">;</text>
</g>
<!-- stmt351&#45;&#45;351; -->
<g id="edge80" class="edge">
<title>stmt351&#45;&#45;351;</title>
<path fill="none" stroke="black" d="M1695.84,-578.65C1698.75,-577.68 1701.66,-576.78 1704.5,-576 1795.78,-550.81 1824.19,-568.48 1914.5,-540 1917.53,-539.04 1920.64,-537.88 1923.69,-536.62"/>
</g>
<!-- 344 -->
<g id="node65" class="node">
<title>344</title>
<text text-anchor="middle" x="1703.5" y="-372.95" font-family="Times,serif" font-size="14.00">Identifier</text>
</g>
<!-- 344&#45;&#45;344 -->
<g id="edge62" class="edge">
<title>344&#45;&#45;344</title>
<path fill="none" stroke="black" d="M1736.45,-391.49C1746.63,-391.21 1754.62,-386.72 1754.62,-378 1754.62,-369.28 1746.63,-364.79 1736.45,-364.51"/>
</g>
<!-- 344v -->
<g id="node66" class="node">
<title>344v</title>
<text text-anchor="middle" x="3101.5" y="-1164.95" font-family="Times,serif" font-size="14.00">nombre</text>
</g>
<!-- 345 -->
<g id="node67" class="node">
<title>345</title>
<text text-anchor="middle" x="1876.5" y="-372.95" font-family="Times,serif" font-size="14.00">STRING</text>
</g>
<!-- 345v -->
<g id="node68" class="node">
<title>345v</title>
<text text-anchor="middle" x="1876.5" y="-300.95" font-family="Times,serif" font-size="14.00">persona10</text>
</g>
<!-- 345&#45;&#45;345v -->
<g id="edge63" class="edge">
<title>345&#45;&#45;345v</title>
<path fill="none" stroke="black" d="M1876.5,-360.05C1876.5,-349.05 1876.5,-334.76 1876.5,-323.79"/>
</g>
<!-- 346 -->
<g id="node69" class="node">
<title>346</title>
<text text-anchor="middle" x="1799.5" y="-444.95" font-family="Times,serif" font-size="14.00">BinaryExpression</text>
</g>
<!-- 346&#45;&#45;344 -->
<g id="edge64" class="edge">
<title>346&#45;&#45;344</title>
<path fill="none" stroke="black" d="M1776.26,-432.05C1761.17,-421.05 1741.58,-406.76 1726.52,-395.79"/>
</g>
<!-- 346&#45;&#45;345 -->
<g id="edge66" class="edge">
<title>346&#45;&#45;345</title>
<path fill="none" stroke="black" d="M1818.14,-432.05C1830.25,-421.05 1845.96,-406.76 1858.03,-395.79"/>
</g>
<!-- 346op -->
<g id="node70" class="node">
<title>346op</title>
<text text-anchor="middle" x="1799.5" y="-372.95" font-family="Times,serif" font-size="14.00">=</text>
</g>
<!-- 346&#45;&#45;346op -->
<g id="edge65" class="edge">
<title>346&#45;&#45;346op</title>
<path fill="none" stroke="black" d="M1799.5,-432.05C1799.5,-421.05 1799.5,-406.76 1799.5,-395.79"/>
</g>
<!-- 347 -->
<g id="node71" class="node">
<title>347</title>
<text text-anchor="middle" x="1960.5" y="-372.95" font-family="Times,serif" font-size="14.00">Identifier</text>
</g>
<!-- 347&#45;&#45;347 -->
<g id="edge67" class="edge">
<title>347&#45;&#45;347</title>
<path fill="none" stroke="black" d="M1993.45,-391.49C2003.63,-391.21 2011.62,-386.72 2011.62,-378 2011.62,-369.28 2003.63,-364.79 1993.45,-364.51"/>
</g>
<!-- 347v -->
<g id="node72" class="node">
<title>347v</title>
<text text-anchor="middle" x="3177.5" y="-1164.95" font-family="Times,serif" font-size="14.00">nombre</text>
</g>
<!-- 348 -->
<g id="node73" class="node">
<title>348</title>
<text text-anchor="middle" x="2133.5" y="-372.95" font-family="Times,serif" font-size="14.00">STRING</text>
</g>
<!-- 348v -->
<g id="node74" class="node">
<title>348v</title>
<text text-anchor="middle" x="2133.5" y="-300.95" font-family="Times,serif" font-size="14.00">persona20</text>
</g>
<!-- 348&#45;&#45;348v -->
<g id="edge68" class="edge">
<title>348&#45;&#45;348v</title>
<path fill="none" stroke="black" d="M2133.5,-360.05C2133.5,-349.05 2133.5,-334.76 2133.5,-323.79"/>
</g>
<!-- 349 -->
<g id="node75" class="node">
<title>349</title>
<text text-anchor="middle" x="2028.5" y="-444.95" font-family="Times,serif" font-size="14.00">BinaryExpression</text>
</g>
<!-- 349&#45;&#45;347 -->
<g id="edge69" class="edge">
<title>349&#45;&#45;347</title>
<path fill="none" stroke="black" d="M2012.04,-432.05C2001.35,-421.05 1987.47,-406.76 1976.81,-395.79"/>
</g>
<!-- 349&#45;&#45;348 -->
<g id="edge71" class="edge">
<title>349&#45;&#45;348</title>
<path fill="none" stroke="black" d="M2053.92,-432.05C2070.43,-421.05 2091.85,-406.76 2108.32,-395.79"/>
</g>
<!-- 349op -->
<g id="node76" class="node">
<title>349op</title>
<text text-anchor="middle" x="2056.5" y="-372.95" font-family="Times,serif" font-size="14.00">=</text>
</g>
<!-- 349&#45;&#45;349op -->
<g id="edge70" class="edge">
<title>349&#45;&#45;349op</title>
<path fill="none" stroke="black" d="M2035.28,-432.05C2039.68,-421.05 2045.39,-406.76 2049.78,-395.79"/>
</g>
<!-- 350&#45;&#45;346 -->
<g id="edge72" class="edge">
<title>350&#45;&#45;346</title>
<path fill="none" stroke="black" d="M1837.4,-504.05C1829.54,-493.05 1819.33,-478.76 1811.49,-467.79"/>
</g>
<!-- 350&#45;&#45;349 -->
<g id="edge74" class="edge">
<title>350&#45;&#45;349</title>
<path fill="none" stroke="black" d="M1892.83,-504.05C1920.87,-493.09 1957.24,-478.87 1985.26,-467.91"/>
</g>
<!-- 350op -->
<g id="node78" class="node">
<title>350op</title>
<text text-anchor="middle" x="1900.5" y="-444.95" font-family="Times,serif" font-size="14.00">OR</text>
</g>
<!-- 350&#45;&#45;350op -->
<g id="edge73" class="edge">
<title>350&#45;&#45;350op</title>
<path fill="none" stroke="black" d="M1861.85,-504.05C1869.86,-493.05 1880.27,-478.76 1888.27,-467.79"/>
</g>
<!-- code8 -->
<g id="node84" class="node">
<title>code8</title>
<text text-anchor="middle" x="1869.5" y="-732.95" font-family="Times,serif" font-size="14.00">Statements</text>
</g>
<!-- code8&#45;&#45;code7 -->
<g id="edge81" class="edge">
<title>code8&#45;&#45;code7</title>
<path fill="none" stroke="black" d="M1831.65,-724.32C1793.89,-711.68 1736.2,-692.36 1698.42,-679.7"/>
</g>
<!-- stmt355 -->
<g id="node85" class="node">
<title>stmt355</title>
<text text-anchor="middle" x="1869.5" y="-660.95" font-family="Times,serif" font-size="14.00">Statement</text>
</g>
<!-- code8&#45;&#45;stmt355 -->
<g id="edge82" class="edge">
<title>code8&#45;&#45;stmt355</title>
<path fill="none" stroke="black" d="M1869.5,-720.05C1869.5,-709.05 1869.5,-694.76 1869.5,-683.79"/>
</g>
<!-- 355 -->
<g id="node86" class="node">
<title>355</title>
<text text-anchor="middle" x="1746.5" y="-588.95" font-family="Times,serif" font-size="14.00">SELECT</text>
</g>
<!-- stmt355&#45;&#45;355 -->
<g id="edge83" class="edge">
<title>stmt355&#45;&#45;355</title>
<path fill="none" stroke="black" d="M1839.73,-648.05C1820.39,-637.05 1795.28,-622.76 1776,-611.79"/>
</g>
<!-- 355selection -->
<g id="node87" class="node">
<title>355selection</title>
<text text-anchor="middle" x="1830.5" y="-588.95" font-family="Times,serif" font-size="14.00">Selection</text>
</g>
<!-- stmt355&#45;&#45;355selection -->
<g id="edge84" class="edge">
<title>stmt355&#45;&#45;355selection</title>
<path fill="none" stroke="black" d="M1860.06,-648.05C1853.93,-637.05 1845.97,-622.76 1839.85,-611.79"/>
</g>
<!-- 355from -->
<g id="node88" class="node">
<title>355from</title>
<text text-anchor="middle" x="1909.5" y="-588.95" font-family="Times,serif" font-size="14.00">FROM</text>
</g>
<!-- stmt355&#45;&#45;355from -->
<g id="edge85" class="edge">
<title>stmt355&#45;&#45;355from</title>
<path fill="none" stroke="black" d="M1879.18,-648.05C1885.47,-637.05 1893.64,-622.76 1899.91,-611.79"/>
</g>
<!-- 355i -->
<g id="node89" class="node">
<title>355i</title>
<text text-anchor="middle" x="1986.5" y="-588.95" font-family="Times,serif" font-size="14.00">personas</text>
</g>
<!-- stmt355&#45;&#45;355i -->
<g id="edge86" class="edge">
<title>stmt355&#45;&#45;355i</title>
<path fill="none" stroke="black" d="M1897.82,-648.05C1916.22,-637.05 1940.1,-622.76 1958.44,-611.79"/>
</g>
<!-- 355; -->
<g id="node90" class="node">
<title>355;</title>
<text text-anchor="middle" x="2063.5" y="-588.95" font-family="Times,serif" font-size="14.00">;</text>
</g>
<!-- stmt355&#45;&#45;355; -->
<g id="edge87" class="edge">
<title>stmt355&#45;&#45;355;</title>
<path fill="none" stroke="black" d="M1904.81,-651.46C1908.08,-650.27 1911.34,-649.1 1914.5,-648 1964.28,-630.68 1978.45,-631.3 2027.5,-612 2030.46,-610.84 2033.52,-609.54 2036.54,-608.2"/>
</g>
<!-- code9 -->
<g id="node91" class="node">
<title>code9</title>
<text text-anchor="middle" x="2057.5" y="-804.95" font-family="Times,serif" font-size="14.00">Statements</text>
</g>
<!-- code9&#45;&#45;code8 -->
<g id="edge88" class="edge">
<title>code9&#45;&#45;code8</title>
<path fill="none" stroke="black" d="M2019.91,-795C1987.23,-782.83 1940.11,-765.29 1907.35,-753.09"/>
</g>
<!-- stmt356 -->
<g id="node92" class="node">
<title>stmt356</title>
<text text-anchor="middle" x="2057.5" y="-732.95" font-family="Times,serif" font-size="14.00">Statement</text>
</g>
<!-- code9&#45;&#45;stmt356 -->
<g id="edge89" class="edge">
<title>code9&#45;&#45;stmt356</title>
<path fill="none" stroke="black" d="M2057.5,-792.05C2057.5,-781.05 2057.5,-766.76 2057.5,-755.79"/>
</g>
<!-- 356 -->
<g id="node93" class="node">
<title>356</title>
<text text-anchor="middle" x="1966.5" y="-660.95" font-family="Times,serif" font-size="14.00">TRUNCATE</text>
</g>
<!-- stmt356&#45;&#45;356 -->
<g id="edge90" class="edge">
<title>stmt356&#45;&#45;356</title>
<path fill="none" stroke="black" d="M2035.47,-720.05C2021.16,-709.05 2002.59,-694.76 1988.33,-683.79"/>
</g>
<!-- 356table -->
<g id="node94" class="node">
<title>356table</title>
<text text-anchor="middle" x="2057.5" y="-660.95" font-family="Times,serif" font-size="14.00">TABLE</text>
</g>
<!-- stmt356&#45;&#45;356table -->
<g id="edge91" class="edge">
<title>stmt356&#45;&#45;356table</title>
<path fill="none" stroke="black" d="M2057.5,-720.05C2057.5,-709.05 2057.5,-694.76 2057.5,-683.79"/>
</g>
<!-- 356i -->
<g id="node95" class="node">
<title>356i</title>
<text text-anchor="middle" x="2136.5" y="-660.95" font-family="Times,serif" font-size="14.00">personas</text>
</g>
<!-- stmt356&#45;&#45;356i -->
<g id="edge92" class="edge">
<title>stmt356&#45;&#45;356i</title>
<path fill="none" stroke="black" d="M2076.62,-720.05C2089.04,-709.05 2105.17,-694.76 2117.55,-683.79"/>
</g>
<!-- 356; -->
<g id="node96" class="node">
<title>356;</title>
<text text-anchor="middle" x="2213.5" y="-660.95" font-family="Times,serif" font-size="14.00">;</text>
</g>
<!-- stmt356&#45;&#45;356; -->
<g id="edge93" class="edge">
<title>stmt356&#45;&#45;356;</title>
<path fill="none" stroke="black" d="M2092.79,-721.7C2116.75,-711.23 2149.12,-696.97 2177.5,-684 2180.52,-682.62 2183.67,-681.16 2186.8,-679.7"/>
</g>
<!-- code10 -->
<g id="node97" class="node">
<title>code10</title>
<text text-anchor="middle" x="2257.5" y="-876.95" font-family="Times,serif" font-size="14.00">Statements</text>
</g>
<!-- code10&#45;&#45;code9 -->
<g id="edge94" class="edge">
<title>code10&#45;&#45;code9</title>
<path fill="none" stroke="black" d="M2219.88,-867.83C2184.24,-855.36 2130.99,-836.72 2095.29,-824.23"/>
</g>
<!-- stmt357 -->
<g id="node98" class="node">
<title>stmt357</title>
<text text-anchor="middle" x="2257.5" y="-804.95" font-family="Times,serif" font-size="14.00">Statement</text>
</g>
<!-- code10&#45;&#45;stmt357 -->
<g id="edge95" class="edge">
<title>code10&#45;&#45;stmt357</title>
<path fill="none" stroke="black" d="M2257.5,-864.05C2257.5,-853.05 2257.5,-838.76 2257.5,-827.79"/>
</g>
<!-- 357 -->
<g id="node99" class="node">
<title>357</title>
<text text-anchor="middle" x="2140.5" y="-732.95" font-family="Times,serif" font-size="14.00">ALTER</text>
</g>
<!-- stmt357&#45;&#45;357 -->
<g id="edge96" class="edge">
<title>stmt357&#45;&#45;357</title>
<path fill="none" stroke="black" d="M2229.18,-792.05C2210.78,-781.05 2186.9,-766.76 2168.56,-755.79"/>
</g>
<!-- 357table -->
<g id="node100" class="node">
<title>357table</title>
<text text-anchor="middle" x="2218.5" y="-732.95" font-family="Times,serif" font-size="14.00">TABLE</text>
</g>
<!-- stmt357&#45;&#45;357table -->
<g id="edge97" class="edge">
<title>stmt357&#45;&#45;357table</title>
<path fill="none" stroke="black" d="M2248.06,-792.05C2241.93,-781.05 2233.97,-766.76 2227.85,-755.79"/>
</g>
<!-- 357i -->
<g id="node101" class="node">
<title>357i</title>
<text text-anchor="middle" x="2297.5" y="-732.95" font-family="Times,serif" font-size="14.00">personas</text>
</g>
<!-- stmt357&#45;&#45;357i -->
<g id="edge98" class="edge">
<title>stmt357&#45;&#45;357i</title>
<path fill="none" stroke="black" d="M2267.18,-792.05C2273.47,-781.05 2281.64,-766.76 2287.91,-755.79"/>
</g>
<!-- 357action -->
<g id="node102" class="node">
<title>357action</title>
<text text-anchor="middle" x="2425.5" y="-732.95" font-family="Times,serif" font-size="14.00">ADD,nueva_col,STRING</text>
</g>
<!-- stmt357&#45;&#45;357action -->
<g id="edge99" class="edge">
<title>stmt357&#45;&#45;357action</title>
<path fill="none" stroke="black" d="M2292.72,-794.33C2319.56,-783.14 2356.58,-767.72 2384.71,-756"/>
</g>
<!-- 357; -->
<g id="node103" class="node">
<title>357;</title>
<text text-anchor="middle" x="2549.5" y="-732.95" font-family="Times,serif" font-size="14.00">;</text>
</g>
<!-- stmt357&#45;&#45;357; -->
<g id="edge100" class="edge">
<title>stmt357&#45;&#45;357;</title>
<path fill="none" stroke="black" d="M2292.84,-794.65C2295.74,-793.68 2298.66,-792.78 2301.5,-792 2393.22,-766.73 2421.61,-784.1 2512.5,-756 2515.88,-754.96 2519.35,-753.67 2522.74,-752.28"/>
</g>
<!-- code11 -->
<g id="node104" class="node">
<title>code11</title>
<text text-anchor="middle" x="2496.5" y="-948.95" font-family="Times,serif" font-size="14.00">Statements</text>
</g>
<!-- code11&#45;&#45;code10 -->
<g id="edge101" class="edge">
<title>code11&#45;&#45;code10</title>
<path fill="none" stroke="black" d="M2458.63,-941.91C2413.88,-928.8 2339.87,-907.12 2295.19,-894.04"/>
</g>
<!-- stmt360 -->
<g id="node105" class="node">
<title>stmt360</title>
<text text-anchor="middle" x="2496.5" y="-876.95" font-family="Times,serif" font-size="14.00">Statement</text>
</g>
<!-- code11&#45;&#45;stmt360 -->
<g id="edge102" class="edge">
<title>code11&#45;&#45;stmt360</title>
<path fill="none" stroke="black" d="M2496.5,-936.05C2496.5,-925.05 2496.5,-910.76 2496.5,-899.79"/>
</g>
<!-- 360 -->
<g id="node106" class="node">
<title>360</title>
<text text-anchor="middle" x="2342.5" y="-804.95" font-family="Times,serif" font-size="14.00">INSERT</text>
</g>
<!-- stmt360&#45;&#45;360 -->
<g id="edge103" class="edge">
<title>stmt360&#45;&#45;360</title>
<path fill="none" stroke="black" d="M2461.17,-864.94C2434.88,-852.99 2399.33,-836.83 2374.01,-825.32"/>
</g>
<!-- 360into -->
<g id="node107" class="node">
<title>360into</title>
<text text-anchor="middle" x="2419.5" y="-804.95" font-family="Times,serif" font-size="14.00">INTO</text>
</g>
<!-- stmt360&#45;&#45;360into -->
<g id="edge104" class="edge">
<title>stmt360&#45;&#45;360into</title>
<path fill="none" stroke="black" d="M2477.86,-864.05C2465.75,-853.05 2450.04,-838.76 2437.97,-827.79"/>
</g>
<!-- 360i -->
<g id="node108" class="node">
<title>360i</title>
<text text-anchor="middle" x="2496.5" y="-804.95" font-family="Times,serif" font-size="14.00">personas</text>
</g>
<!-- stmt360&#45;&#45;360i -->
<g id="edge105" class="edge">
<title>stmt360&#45;&#45;360i</title>
<path fill="none" stroke="black" d="M2496.5,-864.05C2496.5,-853.05 2496.5,-838.76 2496.5,-827.79"/>
</g>
<!-- 360cols -->
<g id="node109" class="node">
<title>360cols</title>
<text text-anchor="middle" x="2578.5" y="-804.95" font-family="Times,serif" font-size="14.00">Columns</text>
</g>
<!-- stmt360&#45;&#45;360cols -->
<g id="edge106" class="edge">
<title>stmt360&#45;&#45;360cols</title>
<path fill="none" stroke="black" d="M2516.35,-864.05C2529.24,-853.05 2545.98,-838.76 2558.83,-827.79"/>
</g>
<!-- 360vals -->
<g id="node110" class="node">
<title>360vals</title>
<text text-anchor="middle" x="2656.5" y="-804.95" font-family="Times,serif" font-size="14.00">Values</text>
</g>
<!-- stmt360&#45;&#45;360vals -->
<g id="edge107" class="edge">
<title>stmt360&#45;&#45;360vals</title>
<path fill="none" stroke="black" d="M2531.66,-866.38C2556.57,-855.93 2590.71,-841.39 2620.5,-828 2623.53,-826.64 2626.68,-825.19 2629.81,-823.74"/>
</g>
<!-- 360; -->
<g id="node111" class="node">
<title>360;</title>
<text text-anchor="middle" x="2728.5" y="-804.95" font-family="Times,serif" font-size="14.00">;</text>
</g>
<!-- stmt360&#45;&#45;360; -->
<g id="edge108" class="edge">
<title>stmt360&#45;&#45;360;</title>
<path fill="none" stroke="black" d="M2531.41,-867.02C2534.47,-865.94 2537.53,-864.92 2540.5,-864 2606.81,-843.44 2626.98,-850.95 2692.5,-828 2695.5,-826.95 2698.59,-825.73 2701.63,-824.43"/>
</g>
<!-- code12 -->
<g id="node112" class="node">
<title>code12</title>
<text text-anchor="middle" x="2578.5" y="-1020.95" font-family="Times,serif" font-size="14.00">Statements</text>
</g>
<!-- code12&#45;&#45;code11 -->
<g id="edge109" class="edge">
<title>code12&#45;&#45;code11</title>
<path fill="none" stroke="black" d="M2558.65,-1008.05C2545.76,-997.05 2529.02,-982.76 2516.17,-971.79"/>
</g>
<!-- stmt361 -->
<g id="node113" class="node">
<title>stmt361</title>
<text text-anchor="middle" x="2696.5" y="-948.95" font-family="Times,serif" font-size="14.00">Statement</text>
</g>
<!-- code12&#45;&#45;stmt361 -->
<g id="edge110" class="edge">
<title>code12&#45;&#45;stmt361</title>
<path fill="none" stroke="black" d="M2607.06,-1008.05C2625.62,-997.05 2649.7,-982.76 2668.2,-971.79"/>
</g>
<!-- 361 -->
<g id="node114" class="node">
<title>361</title>
<text text-anchor="middle" x="2582.5" y="-876.95" font-family="Times,serif" font-size="14.00">SELECT</text>
</g>
<!-- stmt361&#45;&#45;361 -->
<g id="edge111" class="edge">
<title>stmt361&#45;&#45;361</title>
<path fill="none" stroke="black" d="M2668.9,-936.05C2650.98,-925.05 2627.71,-910.76 2609.84,-899.79"/>
</g>
<!-- 361selection -->
<g id="node115" class="node">
<title>361selection</title>
<text text-anchor="middle" x="2660.5" y="-876.95" font-family="Times,serif" font-size="14.00">*</text>
</g>
<!-- stmt361&#45;&#45;361selection -->
<g id="edge112" class="edge">
<title>stmt361&#45;&#45;361selection</title>
<path fill="none" stroke="black" d="M2687.79,-936.05C2682.13,-925.05 2674.78,-910.76 2669.13,-899.79"/>
</g>
<!-- 361from -->
<g id="node116" class="node">
<title>361from</title>
<text text-anchor="middle" x="2733.5" y="-876.95" font-family="Times,serif" font-size="14.00">FROM</text>
</g>
<!-- stmt361&#45;&#45;361from -->
<g id="edge113" class="edge">
<title>stmt361&#45;&#45;361from</title>
<path fill="none" stroke="black" d="M2705.46,-936.05C2711.27,-925.05 2718.82,-910.76 2724.63,-899.79"/>
</g>
<!-- 361i -->
<g id="node117" class="node">
<title>361i</title>
<text text-anchor="middle" x="2810.5" y="-876.95" font-family="Times,serif" font-size="14.00">personas</text>
</g>
<!-- stmt361&#45;&#45;361i -->
<g id="edge114" class="edge">
<title>stmt361&#45;&#45;361i</title>
<path fill="none" stroke="black" d="M2724.1,-936.05C2742.02,-925.05 2765.29,-910.76 2783.16,-899.79"/>
</g>
<!-- 361; -->
<g id="node118" class="node">
<title>361;</title>
<text text-anchor="middle" x="2887.5" y="-876.95" font-family="Times,serif" font-size="14.00">;</text>
</g>
<!-- stmt361&#45;&#45;361; -->
<g id="edge115" class="edge">
<title>stmt361&#45;&#45;361;</title>
<path fill="none" stroke="black" d="M2731.69,-942.21C2763.38,-932.19 2811.05,-916.41 2851.5,-900 2854.45,-898.8 2857.5,-897.49 2860.52,-896.14"/>
</g>
<!-- code13 -->
<g id="node119" class="node">
<title>code13</title>
<text text-anchor="middle" x="2621.5" y="-1092.95" font-family="Times,serif" font-size="14.00">Statements</text>
</g>
<!-- code13&#45;&#45;code12 -->
<g id="edge116" class="edge">
<title>code13&#45;&#45;code12</title>
<path fill="none" stroke="black" d="M2611.09,-1080.05C2604.33,-1069.05 2595.55,-1054.76 2588.81,-1043.79"/>
</g>
<!-- stmt371 -->
<g id="node120" class="node">
<title>stmt371</title>
<text text-anchor="middle" x="2664.5" y="-1020.95" font-family="Times,serif" font-size="14.00">stmt371</text>
</g>
<!-- code13&#45;&#45;stmt371 -->
<g id="edge117" class="edge">
<title>code13&#45;&#45;stmt371</title>
<path fill="none" stroke="black" d="M2631.91,-1080.05C2638.67,-1069.05 2647.45,-1054.76 2654.19,-1043.79"/>
</g>
<!-- code14 -->
<g id="node121" class="node">
<title>code14</title>
<text text-anchor="middle" x="2662.5" y="-1164.95" font-family="Times,serif" font-size="14.00">Statements</text>
</g>
<!-- code14&#45;&#45;code13 -->
<g id="edge118" class="edge">
<title>code14&#45;&#45;code13</title>
<path fill="none" stroke="black" d="M2652.58,-1152.05C2646.13,-1141.05 2637.76,-1126.76 2631.33,-1115.79"/>
</g>
<!-- EOF -->
<g id="node122" class="node">
<title>EOF</title>
<text text-anchor="middle" x="2704.5" y="-1092.95" font-family="Times,serif" font-size="14.00">EOF</text>
</g>
<!-- code14&#45;&#45;EOF -->
<g id="edge119" class="edge">
<title>code14&#45;&#45;EOF</title>
<path fill="none" stroke="black" d="M2672.67,-1152.05C2679.27,-1141.05 2687.84,-1126.76 2694.43,-1115.79"/>
</g>
</g>
</svg>
